<svg t="1625641598229" class="icon" viewBox="0 0 1024 1024" version="1.1" xmlns="http://www.w3.org/2000/svg" p-id="2582" width="48" height="48"><path d="M72.6 737.6c-0.3 5.5-0.8 10-0.7 14.6 0.1 3.4-2 5.8-4.3 6.4-2.8 0.7-6.7 0.5-9.2-0.9-3.1-1.8-5.2-5.2-8.4-8.5 0 3.5 0.1 6.3 0 9.2-0.1 4.4-2.9 8.5-5.9 8.9-5.7 0.8-9.5-1.2-11.3-6.2-5.1-14-8.4-28.4-10.6-43.1-0.2-1.6-0.5-3.2-0.7-4.1-2.7 0.7-5.2 1.6-7.7 1.8-4.4 0.3-7.6-2.6-8-7.1-4.4-43.6-0.4-85.8 22.9-124.2 11.8-19.6 20.4-40.3 27.4-62.1 19.5-60.1 50.1-114.4 88.1-164.6 4.7-6.2 9.2-12.4 13.6-18.3-11.2 1-22.4 2.3-33.7 2.9-11.8 0.6-23.4-1.1-34.3-5.9-18.7-8.1-28-23.1-30.5-42.7-2.7-21.6 4.1-41.2 13.9-60 14.7-28.1 36.8-48.9 64.1-64.5 17.1-9.8 34.8-18.2 54.2-22.3 9.1-1.9 18.2-2.7 27.4-0.9 14.4 2.8 23.1 12.6 29.5 24.9 6.2 11.9 8.3 24.8 7.7 38-0.5 9.8-1.9 19.5-2.9 29.1 1.2-0.8 3-2 4.7-3.1 36.2-23.9 73.9-45 113.7-62.3 14-6.1 28.8-8.8 43.8-10.9 29-4.1 54.5-15.5 76-35.5 10.1-9.3 20.3-18.5 30.6-27.6 3.9-3.5 9.9-3.3 13.2 0.6 0.9 1 1.3 2.7 1.4 4 0.5 10.3-1.3 20.3-3.9 30.2-0.2 0.7-0.3 1.4 0.1 2.4 3.9-5.1 7.9-10 11.6-15.3 7.9-11.2 15.5-22.6 23.2-34 2.4-3.5 4.8-6.3 9.7-5.7 3.8 0.5 6.8 2.4 7.8 6.2 2.7 9.5 2.3 19.2 2.4 28.9 0 12.1-2.5 23.7-6.8 35-0.4 1-0.7 2.1-1.1 3.4 0.5 0 0.9 0.2 1.1 0.1 14.6-8.8 27.4-19.2 34.9-35.1 0.8-1.7 1.7-3.4 2.7-5 4.8-7.8 14-8 18.3 0.2 2 3.9 3.7 8.4 4.2 12.7 1.4 13.4 0.1 26.7-5.2 39.2-0.2 0.4-0.3 0.9-0.7 1.8 42.7 14.4 83.5 32.5 123.2 54.5 0-4.3-0.3-8.2 0-12.2 1.6-21.2 9.3-40.4 20-58.4 9.2-15.5 24.1-20 40.6-15.5 34.7 9.4 68 22.2 94.3 48.3 18.8 18.7 32.2 40.6 37.8 66.7 2.3 10.8 2.9 21.7 0.9 32.7-2 10.5-8.3 18.5-16.7 24.7-14.1 10.5-30.1 13.3-47.3 11.4-4.4-0.5-8.9-0.8-14.4-1.3 3.3 4 6 7.2 8.7 10.5 41.1 50.1 71.6 106.3 94.8 166.6 18.1 47 31.1 95.2 39.9 144.7 7.1 39.9 3 78.2-17.3 114-3.9 6.9-9.4 13-14 19.5-2.8 3.9-7 3.3-10.3 2.3-3.3-1-5.2-4.2-4.5-8.2 0.1-0.6 0-1.2 0-3.1-2.1 3.5-3.5 6-5.1 8.5-3.8 5.9-7.5 11.8-11.4 17.8-2.5 3.8-6.6 3.2-9.9 2.3-3.2-0.9-5.1-3.9-4.4-7.8 0.2-0.9-0.1-1.9-0.1-3.7-2.9 3.5-5.4 6.4-7.9 9.3-41.8 49.1-93.2 84.9-152.9 108.9-36.1 14.5-73.4 24.4-111.6 31.2-57.1 10.1-114.7 11.7-172.4 10.2-47.8-1.2-95.1-6.7-141.6-18.2-61.1-15.2-116.7-41.9-167.9-78.3-35.6-25.3-68.3-53.7-96.4-87.3-5.6-6.1-10.5-13.1-16.4-20.7z m444.6-611.1c-0.3-0.2-0.5-0.3-0.8-0.5-0.9 0.8-1.9 1.5-2.8 2.3-5 4.4-10 8.8-14.9 13.3-21.4 19.7-46.6 31.2-75.3 35.3-14.3 2-28.6 4.3-42.1 10-37.6 15.9-72.9 35.8-107.3 57.5-18.7 11.8-36 25.4-50.8 42-22.5 25.2-43.4 51.7-63.7 78.7-39.5 52.4-70.8 109.2-90.6 171.8-5.5 17.5-12.6 33.9-22 49.7-10.3 17.2-18.9 35.3-22.8 55.2-1.1 5.6-2 11.2-3 16.8 1.5-0.1 2.1-0.5 2.6-1 3.5-3.1 8.8-2.8 12 0.6 2.9 3.2 1.7 7 1.1 10.4-2 10.3-1.8 20.5-0.8 30.9 0.3 2.5 0.7 5 1.1 7.6 0.8-0.6 0.9-1.2 1-1.8 1.4-6.1 2.5-12.3 4.2-18.3 1.3-4.7 5.6-6.6 11.5-5.8 2.9 0.4 5.4 3.5 5.7 7.8 0.4 5.3 0.4 10.6 0.6 15.8 0.2 4.7 0.6 9.3 0.9 15.3 1.7-2.1 2.6-3.3 3.7-4.4 2.1-2.1 10.2-2.9 12.3-0.9 2.6 2.5 5 5.3 7.1 8.2 6.9 9.6 13.1 19.7 20.5 28.9 21.2 26.4 46.8 48.2 73.7 68.5 48 36.2 100.1 64.5 157.9 82 49.7 15.1 100.7 22.2 152.4 24.6 46.5 2.1 92.9 0.6 139.2-5.1 33.8-4.2 67-10.7 99.6-20.6 57.6-17.4 110.8-43.3 156.2-83.4 24.7-21.9 47.2-45.8 61.4-76.2 2.9-6.3 11.8-6.3 15.2-0.7 0.8 1.3 0.8 3.1 1.2 4.7 0.4 0.1 0.7 0.2 1 0.3 2.7-7.5 5.1-15.1 8.2-22.5 1.2-2.9 3.3-6.6 5.9-7.6 3.4-1.3 8.2-1.7 10.7 2.7 2 3.4 3.7 7.1 5.5 10.5-0.1 0.1 0.2 0 0.3-0.2 8.8-22.6 13.5-45.9 9.7-70.2-6.1-38.3-15.1-75.9-26.9-112.8-21.2-66.4-50.4-128.7-91.5-185.2-39.9-54.9-89.3-98.9-149.5-130.6-36.3-19.1-74-35.3-113.1-47.8-4.4-1.4-6.7-4.3-6.5-8.7 0.1-2.3 0.8-4.6 1.6-6.8 2-5.6 4.3-11 6.3-16.5 0.8-2.1 1.2-4.4 1.6-6.6 0.4-2.2 0.6-4.5 0.9-6.7-0.9 0.1-1.1 0.4-1.3 0.7-14.9 20.3-35.3 33.5-57.7 43.8-3 1.4-7.9 1.1-11-0.3-4-1.8-4.2-7.9-1.6-12.7 6.9-12.9 12.9-26.2 16-40.6 1.1-5.2 1.5-10.7 2.3-16-0.4-0.1-0.7-0.1-1-0.2-0.8 1.1-1.5 2.3-2.4 3.4-9.3 12.1-17.9 24.7-28.1 36-7.4 8.2-16.8 14.7-25.5 21.7-3.5 2.8-8 2.7-11.9 1.2-4.1-1.6-5-8.5-2.6-12.8 3.8-6.6 7.6-13.3 11-20.2 2.3-4.7 3.7-9.7 5.4-14.5z" fill="#341B15" p-id="2583"></path><path d="M517.2 126.5c-1.8 4.8-3.2 9.7-5.4 14.3-3.3 6.9-7.1 13.6-11 20.2-2.4 4.2-1.6 11.2 2.6 12.8 3.8 1.5 8.4 1.6 11.9-1.2 8.7-7 18.1-13.5 25.5-21.7 10.2-11.2 18.8-23.9 28.1-36 0.8-1.1 1.6-2.3 2.4-3.4 0.3 0.1 0.7 0.1 1 0.2-0.7 5.4-1.2 10.8-2.3 16-3.1 14.4-9.1 27.6-16 40.6-2.6 4.8-2.4 10.9 1.6 12.7 3.1 1.4 7.9 1.7 11 0.3 22.4-10.4 42.8-23.5 57.7-43.8 0.2-0.3 0.4-0.6 1.3-0.7-0.3 2.2-0.5 4.5-0.9 6.7s-0.8 4.5-1.6 6.6c-2 5.5-4.3 11-6.3 16.5-0.8 2.2-1.5 4.5-1.6 6.8-0.2 4.5 2 7.3 6.5 8.7 39.2 12.5 76.8 28.7 113.1 47.8 60.2 31.6 109.5 75.7 149.5 130.6 41.1 56.5 70.3 118.9 91.5 185.2 11.8 36.9 20.8 74.5 26.9 112.8 3.8 24.3-0.9 47.6-9.7 70.2-0.1 0.2-0.3 0.3-0.3 0.2-1.8-3.5-3.5-7.1-5.5-10.5-2.6-4.4-7.4-4-10.7-2.7-2.6 1-4.7 4.7-5.9 7.6-3.1 7.4-5.5 15-8.2 22.5-0.3-0.1-0.7-0.2-1-0.3-0.4-1.6-0.4-3.4-1.2-4.7-3.3-5.5-12.2-5.5-15.2 0.7-14.2 30.5-36.7 54.4-61.4 76.2-45.4 40.1-98.6 66.1-156.2 83.4-32.6 9.8-65.8 16.4-99.6 20.6-46.3 5.7-92.7 7.2-139.2 5.1-51.7-2.4-102.7-9.5-152.4-24.6-57.8-17.5-109.8-45.9-157.9-82-27-20.3-52.5-42.1-73.7-68.5-7.4-9.2-13.6-19.3-20.5-28.9-2.1-2.9-4.5-5.7-7.1-8.2-2.1-2-10.2-1.2-12.3 0.9-1.1 1.1-2 2.3-3.7 4.4-0.4-5.9-0.7-10.6-0.9-15.3-0.3-5.3-0.3-10.6-0.6-15.8-0.3-4.3-2.8-7.4-5.7-7.8-6-0.7-10.2 1.1-11.5 5.8-1.7 6-2.8 12.2-4.2 18.3-0.1 0.6-0.2 1.2-1 1.8-0.4-2.5-0.8-5-1.1-7.6-1.1-10.3-1.2-20.6 0.8-30.9 0.7-3.4 1.9-7.2-1.1-10.4-3.2-3.4-8.5-3.6-12-0.6-0.5 0.5-1.1 0.9-2.6 1 1-5.6 1.9-11.2 3-16.8 3.9-19.9 12.5-38 22.8-55.2 9.4-15.7 16.5-32.2 22-49.7 19.8-62.7 51-119.4 90.5-171.7 20.3-27 41.2-53.5 63.7-78.7 14.8-16.6 32.1-30.1 50.8-42 34.4-21.7 69.8-41.6 107.3-57.5 13.5-5.7 27.8-8 42.1-10 28.8-4.1 54-15.5 75.3-35.3 4.9-4.5 10-8.9 14.9-13.3 0.9-0.8 1.9-1.5 2.8-2.3 0.4 0.3 0.7 0.5 0.9 0.6zM316.1 382.2c-17.6-0.1-34.9 2.2-51.9 6.8-28.4 7.7-52.5 22.6-73.6 42.7-25.7 24.6-46 52.6-56.8 86.9-5.3 16.9-9 34.3-6.5 52 3.8 26.6 11.1 52.4 22.9 76.6 12.5 25.6 31.5 44.7 57.8 56 14.1 6.1 28.5 11.5 44 12.6 23.5 1.7 45.3-4.7 66.2-14.8 25.1-12.1 47.1-28.5 67.7-47 29.8-26.9 55.1-57.4 72.4-93.9 10.5-22.3 18.7-45.3 19.5-70.3 0.6-18.6-4.1-35.6-16.6-49.5-6.6-7.3-13.9-14.4-21.9-20.1-36.8-26.3-78.5-37.1-123.2-38z m397.2-6.3c-19.6 0.2-36.6 1.7-53.4 5.8-42.5 10.4-74.5 33.7-91.7 75-1 2.5-2 5.3-2 7.9 0 9.4-0.3 19 0.9 28.3 3.6 29.6 14.5 56.6 30.3 81.7 17.2 27.5 39.4 50.6 64.2 71.3 21.3 17.9 44.3 33.1 70.5 43.2 21.2 8.2 43.1 12.3 65.8 9.2 29.5-4 53.2-18.7 72-41.2 20.8-24.8 29-54.5 31.1-86.2 1.2-17.9-0.1-35.7-2.9-53.4-4.7-29.2-15.8-55-36.4-76.7-41.2-43.2-91.4-64.5-148.4-64.9zM602.2 666.6c-1.1 0.4-1.4 0.4-1.5 0.6-0.5 0.5-1 1.1-1.5 1.7-10.9 13.4-25.3 22.1-40.8 29.1-7.6 3.4-17.7 1-23.2-5.3-1.7-2-3-5.1-3.1-7.7-0.4-10.3-0.2-20.7-0.1-31 0-0.9 0.2-1.9 0.3-2.6 5.3-0.4 10.4-0.5 15.4-1.1 13.5-1.7 25.9-6.2 36.2-15.4 16.4-14.8 16.5-34.7 0.3-49.6-6.3-5.8-13.7-9.7-22-12.1-14.9-4.3-30.1-4-45.3-1.9-12.7 1.7-25 4.8-35.9 11.8-10 6.4-17.4 13.8-16.7 27.5 0.6 11.5 4.3 20.2 13.4 26.8 8.9 6.6 19.3 9.6 30.1 11.4 7.3 1.2 14.6 1.8 22.1 2.7v34.1c0 7.9-6.6 14.2-14.6 13.8-10.8-0.6-20.4-4.5-28.7-11.2-6.9-5.5-13.2-11.7-19.8-17.5-0.8-0.7-1.6-1.5-2.4-2.2 1.6 3.1 3.8 5.5 5.9 8 8.9 10.6 19.7 18.7 32.8 23.4 3.3 1.2 6.7 2.4 10.2 2.6 7.8 0.5 13.6-3.4 17.9-9.9 1.1 1 2.1 1.8 2.9 2.7 6.7 7 14.9 8.9 23.4 5.1 9.1-4.1 17.7-9.4 26.2-14.8 7.1-5 13.1-11.1 18.5-19z" fill="#FFFFFF" p-id="2584"></path><path d="M316.1 382.2c44.7 0.8 86.4 11.7 123.1 37.9 8 5.7 15.3 12.8 21.9 20.1 12.6 14 17.3 30.9 16.6 49.5-0.8 25-9 48-19.5 70.3-17.3 36.6-42.6 67-72.4 93.9-20.5 18.6-42.6 35-67.7 47-20.9 10.1-42.7 16.5-66.2 14.8-15.5-1.1-29.9-6.5-44-12.6-26.3-11.4-45.3-30.4-57.8-56-11.8-24.3-19.1-50-22.9-76.6-2.5-17.7 1.2-35.1 6.5-52 10.8-34.2 31.1-62.3 56.8-86.9 21.2-20.2 45.3-35.1 73.6-42.7 17.2-4.4 34.4-6.8 52-6.7zM468.5 507c0-43.1-35-78.3-78-78.4-43.3-0.1-78.5 35-78.6 78.2 0 43.1 35 78.3 78 78.4 43.3 0.1 78.5-35 78.6-78.2z m244.8-131.1c57 0.4 107.2 21.7 148.4 65 20.7 21.8 31.8 47.6 36.4 76.7 2.8 17.7 4.1 35.5 2.9 53.4-2.1 31.7-10.3 61.3-31.1 86.2-18.8 22.5-42.5 37.2-72 41.2-22.7 3.1-44.6-1-65.8-9.2-26.1-10.1-49.1-25.3-70.5-43.2-24.8-20.8-46.9-43.8-64.2-71.3-15.8-25.1-26.7-52.1-30.3-81.7-1.1-9.3-0.9-18.9-0.9-28.3 0-2.7 1-5.4 2-7.9 17.2-41.4 49.2-64.6 91.7-75 16.7-4.2 33.7-5.7 53.4-5.9z m20.6 118.8c0-43.1-35.1-78.2-78.2-78.2-43.3-0.1-78.4 35.1-78.4 78.3 0 43.1 35.1 78.1 78.2 78.2 43.3 0.1 78.4-35 78.4-78.3z" fill="#341B15" p-id="2585"></path><path d="M468.5 507c0 43.2-35.3 78.3-78.6 78.2-43-0.1-78-35.3-78-78.4 0-43.2 35.3-78.3 78.6-78.2 43 0.1 78 35.3 78 78.4z m-80.6 59.2c33.4 0 59.3-25.8 59.4-59.1 0-33.7-25.8-59.6-59.2-59.7-33.6 0-59.5 25.8-59.5 59.3-0.1 33.7 25.8 59.5 59.3 59.5z m346-71.5c0 43.3-35.1 78.4-78.4 78.3-43.1 0-78.1-35.1-78.2-78.2 0-43.3 35.1-78.4 78.4-78.3 43.1 0 78.2 35.1 78.2 78.2z m-80.6-59.3c-33.3 0-59.3 25.9-59.3 59.1 0 33.7 25.7 59.6 59.2 59.6 33.6 0 59.5-25.8 59.5-59.3s-25.9-59.4-59.4-59.4zM514.6 590.3c-3.2-1-6.5-1.5-9.4-2.9-3.7-1.7-3.7-4.9-0.1-6.8 6.2-3.2 12.6-3.2 18.8-0.1 3.7 1.9 3.7 5.2-0.2 7-2.8 1.4-5.9 1.8-9.1 2.8z" fill="#FFFFFF" p-id="2586"></path><path d="M387.9 566.2c-33.5 0-59.4-25.9-59.4-59.4s25.9-59.3 59.5-59.3c33.4 0 59.2 26 59.2 59.7 0 33.2-25.9 59-59.3 59zM351.5 508c9 0 16.4-7.3 16.4-16.3 0-8.8-7.2-16.1-16-16.3-9-0.1-16.4 7.1-16.5 16.1-0.1 9.1 7.2 16.5 16.1 16.5z m15.5 25.7c5.8 0.1 10.6-4.7 10.7-10.4 0.1-5.8-4.7-10.6-10.5-10.7-5.8-0.1-10.6 4.7-10.7 10.5 0 5.7 4.7 10.5 10.5 10.6z m286.3-98.3c33.6 0 59.4 25.9 59.4 59.4s-25.9 59.3-59.5 59.3c-33.5 0-59.2-25.9-59.2-59.6 0-33.2 25.9-59.1 59.3-59.1z m-20 44.1c-0.1-8.9-7.5-16.2-16.5-16.1-8.8 0.1-16 7.4-16 16.2 0 9 7.4 16.3 16.3 16.3 9 0 16.3-7.4 16.2-16.4zM622 511c0 5.8 4.7 10.6 10.5 10.6s10.6-4.7 10.6-10.5c0.1-5.8-4.7-10.6-10.5-10.6S622 505.2 622 511z" fill="#341B15" p-id="2587"></path><path d="M351.5 508c-9 0-16.3-7.5-16.2-16.4 0.1-8.9 7.6-16.2 16.5-16.1 8.8 0.1 16 7.4 16 16.3 0.1 8.9-7.3 16.3-16.3 16.2z m15.5 25.7c-5.8-0.1-10.5-4.9-10.5-10.7 0.1-5.8 4.9-10.5 10.7-10.5 5.8 0.1 10.5 4.9 10.5 10.7-0.1 5.8-4.9 10.6-10.7 10.5z m266.3-54.2c0.1 9-7.2 16.4-16.2 16.4s-16.3-7.3-16.3-16.3c0-8.8 7.2-16.1 16-16.2 9-0.1 16.4 7.2 16.5 16.1zM622 511c0-5.8 4.8-10.5 10.6-10.5s10.5 4.8 10.5 10.6-4.8 10.5-10.6 10.5S622 516.8 622 511z" fill="#FFFFFF" p-id="2588"></path><path d="M530.1 651.6c-11.8-2.2-23.1-3.9-34.2-6.5-8.1-1.9-15.5-5.7-21.6-11.6-6.5-6.2-8.5-13.8-9.2-22.9-1.2-15.3 8-22.8 19.1-29.3 10.2-5.9 21.5-8.6 33.1-10.2 15.1-2 30.2-2.4 45 1.9 8.1 2.3 15.5 6.2 21.8 12 16.1 14.8 16 34.6-0.3 49.2-10.2 9.2-22.5 13.7-35.9 15.3-5 0.6-10 0.8-15.3 1.1" fill="#341B15" p-id="2589"></path><path d="M513.5 589.2c-4.2-0.3-5.2-0.6-8.2-2.1-3-1.5-2.8-4.2-0.1-6.2 4.5-3.3 15.2-3.3 19.7 0 2.8 2 2.7 4.9-0.1 6.8-3.5 1.6-6.1 1.9-11.3 1.5z" fill="#FFFFFF" p-id="2590"></path><path d="M530.1 649.5v38.1s-5.2 13-19.7 10.2c-14.4-2.8-33.2-18.1-44.4-28.7-1.9-1.8 22.7 30.2 46.8 32.3 15.3 1.3 18.6-9.7 18.6-9.7s10.2 11.9 22 10.3c11.3-1.5 31-13.7 47.7-34.6 3.3-4.1-28.7 29.5-47.9 31-8.9 0.7-20.1-6.9-20.4-12.3-0.3-6.8-0.3-36.7-0.3-36.7h-2.4z" fill="#341B15" p-id="2591"></path></svg>