<svg t="1626055587920" class="icon" viewBox="0 0 1024 1024" version="1.1" xmlns="http://www.w3.org/2000/svg" p-id="5420" width="48" height="48"><path d="M877.714286 0H146.285714a146.285714 146.285714 0 0 0-146.285714 146.285714v731.428572a146.285714 146.285714 0 0 0 146.285714 146.285714h731.428572a146.285714 146.285714 0 0 0 146.285714-146.285714V146.285714a146.285714 146.285714 0 0 0-146.285714-146.285714z m73.142857 877.714286a73.142857 73.142857 0 0 1-73.142857 73.142857H146.285714a73.142857 73.142857 0 0 1-73.142857-73.142857V146.285714a73.142857 73.142857 0 0 1 73.142857-73.142857h731.428572a73.142857 73.142857 0 0 1 73.142857 73.142857z" fill="#9C9CAA" p-id="5421"></path><path d="M761.417143-635.00190419L416.182857-289.03619019 223.817143-478.47619019A58.514286 58.514286 0 0 0 146.285714-478.47619019a58.514286 58.514286 0 0 0 0 73.142857l230.4 230.4a90.697143 90.697143 0 0 0 38.765715 13.165714 67.291429 67.291429 0 0 0 38.034285-13.165714l384-384a47.542857 47.542857 0 0 0 0-76.8 58.514286 58.514286 0 0 0-76.068571 0.731429z" fill="#9C9CAA" p-id="5422"></path></svg>